<svg xmlns="http://www.w3.org/2000/svg" viewBox="0 0 45 45"><defs><style>.cls-1{fill:#fff;}</style></defs><title>7x11Asset 14</title><g id="Layer_2" data-name="Layer 2"><g id="Landing"><g id="ПРИМЕНЕНИЕ"><path class="cls-1" d="M41.79,5.36H38.57V2.14A2.14,2.14,0,0,0,36.43,0H32.14A2.14,2.14,0,0,0,30,2.14V5.36H15V2.14A2.14,2.14,0,0,0,12.86,0H8.57A2.14,2.14,0,0,0,6.43,2.14V5.36H3.21A3.21,3.21,0,0,0,0,8.57V41.79A3.21,3.21,0,0,0,3.21,45H41.79A3.21,3.21,0,0,0,45,41.79V8.57A3.21,3.21,0,0,0,41.79,5.36ZM32.14,2.14h4.29V8.57H32.14Zm-23.57,0h4.29V8.57H8.57ZM42.86,41.79a1.07,1.07,0,0,1-1.07,1.07H3.21a1.07,1.07,0,0,1-1.07-1.07V18.21H42.86Zm0-25.72H2.14V8.57A1.07,1.07,0,0,1,3.21,7.5H6.43v3.21H15V7.5H30v3.21h8.57V7.5h3.22a1.07,1.07,0,0,1,1.07,1.07v7.5Z"/><rect class="cls-1" x="24.95" y="23.57" width="4.29" height="2.14"/><rect class="cls-1" x="33.53" y="23.57" width="4.29" height="2.14"/><rect class="cls-1" x="16.38" y="28.93" width="4.29" height="2.14"/><rect class="cls-1" x="24.95" y="28.93" width="4.29" height="2.14"/><rect class="cls-1" x="33.53" y="28.93" width="4.29" height="2.14"/><rect class="cls-1" x="16.38" y="34.29" width="4.29" height="2.14"/><rect class="cls-1" x="24.95" y="34.29" width="4.29" height="2.14"/><rect class="cls-1" x="33.53" y="34.29" width="4.29" height="2.14"/></g></g></g></svg>