<svg xmlns="http://www.w3.org/2000/svg" xmlns:xlink="http://www.w3.org/1999/xlink" viewBox="0 0 47.35 45"><defs><style>.cls-1{fill:url(#linear-gradient);}</style><linearGradient id="linear-gradient" y1="22.5" x2="47.35" y2="22.5" gradientUnits="userSpaceOnUse"><stop offset="0" stop-color="#87c84a"/><stop offset="1" stop-color="#2db86e"/></linearGradient></defs><title>7x11Asset 13</title><g id="Layer_2" data-name="Layer 2"><g id="Landing"><g id="ПРИМЕНЕНИЕ"><path class="cls-1" d="M40.92,13.54V3.59A3.59,3.59,0,0,0,37.34,0H10A3.58,3.58,0,0,0,6.37,3.59h0v10A7.94,7.94,0,0,0,0,21.33V37a8,8,0,0,0,8,8h31.4a8,8,0,0,0,8-8V21.33A8.1,8.1,0,0,0,40.92,13.54ZM8.47,3.59A1.45,1.45,0,0,1,9.89,2.1H37.27a1.51,1.51,0,0,1,1.49,1.49h0v9.58H8.41V3.59ZM2.1,32H13.72V30.54H2.1v-3H18.3v-2.1H2.1v-3h26V32a4,4,0,0,1-3.95,4H2.1Zm43,5.13a5.8,5.8,0,0,1-5.81,5.81H7.91A5.84,5.84,0,0,1,2.1,37.34H24.66a4.87,4.87,0,0,0,4.89-4.89h0V21.08H2.1a5.83,5.83,0,0,1,5.81-5.5h31.4a5.8,5.8,0,0,1,5.81,5.81Z"/></g></g></g></svg>