<svg xmlns="http://www.w3.org/2000/svg" viewBox="0 0 47 43.01"><defs><style>.cls-1{fill:#fff;}</style></defs><title>7x11Asset 13</title><g id="Layer_2" data-name="Layer 2"><g id="Landing"><g id="ПРИМЕНЕНИЕ"><path class="cls-1" d="M43.82,6.17H42.58a3.1,3.1,0,0,0-3.11-2.54H37.29a3,3,0,0,0-3.1,2.54H32.57A1.09,1.09,0,0,1,31.4,5V3.18A3.09,3.09,0,0,0,28.22,0H18.78a3.08,3.08,0,0,0-3.17,3.18V5a1.09,1.09,0,0,1-1.18,1.18H12.82A3.09,3.09,0,0,0,9.71,3.63H7.53a3,3,0,0,0-3.1,2.54H3.18A3.09,3.09,0,0,0,0,9.35V39.83A3.09,3.09,0,0,0,3.18,43H43.82A3.09,3.09,0,0,0,47,39.83V9.35A3.09,3.09,0,0,0,43.82,6.17Zm-6.53-.54h2.17a1.17,1.17,0,0,1,1,.54H36.27A1.05,1.05,0,0,1,37.29,5.63ZM17.61,5V3.19A1.08,1.08,0,0,1,18.78,2h9.44A1.1,1.1,0,0,1,29.4,3.18V5a3.31,3.31,0,0,0,.21,1.18H17.39A3.31,3.31,0,0,0,17.61,5ZM7.53,5.63H9.7a1.16,1.16,0,0,1,1,.54H6.51A1,1,0,0,1,7.53,5.63ZM45,39.83A1.09,1.09,0,0,1,43.82,41H3.18A1.09,1.09,0,0,1,2,39.82V9.35A1.09,1.09,0,0,1,3.18,8.17H43.82A1.09,1.09,0,0,1,45,9.35Z"/><path class="cls-1" d="M26.92,13.81H20.08v7.36H12.72V28h7.36v7.36h6.84V28h7.36V21.17H26.92Zm6.23,8.48v4.6H25.8v7.35H21.2V26.89H13.85v-4.6H21.2V14.94h4.6v7.35Z"/></g></g></g></svg>